<svg width="438" height="45" viewBox="0 0 438 45" fill="none" xmlns="http://www.w3.org/2000/svg">
<path d="M31.1871 18.6364C31.1871 22.2053 30.5106 25.2415 29.1576 27.745C27.8153 30.2486 25.9829 32.1609 23.6605 33.4819C21.3487 34.7923 18.7492 35.4474 15.8622 35.4474C12.9538 35.4474 10.3437 34.7869 8.03192 33.4659C5.72013 32.1449 3.89307 30.2326 2.55074 27.729C1.20841 25.2255 0.537243 22.1946 0.537243 18.6364C0.537243 15.0675 1.20841 12.0312 2.55074 9.5277C3.89307 7.02415 5.72013 5.11719 8.03192 3.80682C10.3437 2.48579 12.9538 1.82528 15.8622 1.82528C18.7492 1.82528 21.3487 2.48579 23.6605 3.80682C25.9829 5.11719 27.8153 7.02415 29.1576 9.5277C30.5106 12.0312 31.1871 15.0675 31.1871 18.6364ZM24.1718 18.6364C24.1718 16.3246 23.8256 14.375 23.1331 12.7876C22.4513 11.2003 21.4872 9.99645 20.2407 9.17614C18.9943 8.35582 17.5348 7.94567 15.8622 7.94567C14.1896 7.94567 12.7301 8.35582 11.4836 9.17614C10.2372 9.99645 9.26771 11.2003 8.57524 12.7876C7.89342 14.375 7.55251 16.3246 7.55251 18.6364C7.55251 20.9482 7.89342 22.8977 8.57524 24.4851C9.26771 26.0724 10.2372 27.2763 11.4836 28.0966C12.7301 28.9169 14.1896 29.3271 15.8622 29.3271C17.5348 29.3271 18.9943 28.9169 20.2407 28.0966C21.4872 27.2763 22.4513 26.0724 23.1331 24.4851C23.8256 22.8977 24.1718 20.9482 24.1718 18.6364ZM51.9253 24.549V10.4545H58.7328V35H52.197V30.5415H51.9413C51.3873 31.9798 50.4658 33.1357 49.1767 34.0092C47.8983 34.8828 46.3376 35.3196 44.4945 35.3196C42.8539 35.3196 41.4104 34.9467 40.1639 34.201C38.9175 33.4553 37.9427 32.3952 37.2396 31.021C36.5471 29.6467 36.1955 28.0007 36.1849 26.0831V10.4545H42.9924V24.8686C43.0031 26.3175 43.3919 27.4627 44.159 28.3043C44.926 29.146 45.9541 29.5668 47.2431 29.5668C48.0634 29.5668 48.8305 29.3803 49.5443 29.0075C50.258 28.6239 50.8333 28.0593 51.2701 27.3136C51.7176 26.5678 51.9359 25.6463 51.9253 24.549ZM64.178 35V10.4545H70.7778V14.7372H71.0335C71.481 13.2138 72.232 12.0632 73.2867 11.2855C74.3414 10.4972 75.5559 10.103 76.9302 10.103C77.2711 10.103 77.6386 10.1243 78.0328 10.1669C78.427 10.2095 78.7732 10.2681 79.0715 10.3427V16.3832C78.7519 16.2873 78.3098 16.2021 77.7452 16.1275C77.1805 16.0529 76.6638 16.0156 76.1951 16.0156C75.1937 16.0156 74.2988 16.234 73.5104 16.6708C72.7327 17.0969 72.1148 17.6935 71.6567 18.4606C71.2093 19.2276 70.9856 20.1119 70.9856 21.1133V35H64.178ZM102.051 35.3995C100.187 35.3995 98.498 34.9201 96.9852 33.9613C95.4831 32.9918 94.2899 31.5696 93.4057 29.6946C92.5321 27.8089 92.0953 25.4972 92.0953 22.7592C92.0953 19.9467 92.5481 17.6083 93.4536 15.744C94.3592 13.869 95.563 12.468 97.0651 11.5412C98.5779 10.6037 100.235 10.1349 102.035 10.1349C103.409 10.1349 104.554 10.3693 105.471 10.8381C106.398 11.2962 107.143 11.8714 107.708 12.5639C108.283 13.2457 108.72 13.9169 109.018 14.5774H109.226V2.27273H116.018V35H109.306V31.0689H109.018C108.699 31.7507 108.246 32.4272 107.66 33.0984C107.085 33.7589 106.334 34.3075 105.407 34.7443C104.491 35.1811 103.372 35.3995 102.051 35.3995ZM104.208 29.9822C105.306 29.9822 106.232 29.6839 106.989 29.0874C107.756 28.4801 108.342 27.6332 108.747 26.5465C109.162 25.4599 109.37 24.1868 109.37 22.7273C109.37 21.2678 109.167 20 108.763 18.924C108.358 17.848 107.772 17.017 107.005 16.4311C106.238 15.8452 105.306 15.5522 104.208 15.5522C103.09 15.5522 102.147 15.8558 101.38 16.4631C100.613 17.0703 100.032 17.9119 99.6379 18.9879C99.2437 20.0639 99.0467 21.3104 99.0467 22.7273C99.0467 24.1548 99.2437 25.4173 99.6379 26.5146C100.043 27.6012 100.623 28.4535 101.38 29.0714C102.147 29.6786 103.09 29.9822 104.208 29.9822ZM132.801 35.4794C130.276 35.4794 128.102 34.968 126.281 33.9453C124.47 32.9119 123.074 31.4524 122.094 29.5668C121.114 27.6705 120.624 25.4279 120.624 22.8391C120.624 20.3143 121.114 18.0984 122.094 16.1914C123.074 14.2844 124.454 12.7983 126.233 11.733C128.023 10.6676 130.121 10.1349 132.529 10.1349C134.148 10.1349 135.656 10.396 137.051 10.918C138.458 11.4293 139.683 12.2017 140.727 13.2351C141.781 14.2685 142.602 15.5682 143.188 17.1342C143.774 18.6896 144.067 20.5114 144.067 22.5994V24.4691H123.34V20.2504H137.659C137.659 19.2702 137.446 18.402 137.019 17.6456C136.593 16.8892 136.002 16.2979 135.246 15.8718C134.5 15.435 133.632 15.2166 132.641 15.2166C131.607 15.2166 130.691 15.4563 129.892 15.9357C129.104 16.4045 128.486 17.0384 128.039 17.8374C127.591 18.6257 127.362 19.5046 127.351 20.4741V24.4851C127.351 25.6996 127.575 26.7489 128.023 27.6332C128.481 28.5174 129.125 29.1992 129.956 29.6786C130.787 30.158 131.773 30.3977 132.913 30.3977C133.669 30.3977 134.361 30.2912 134.99 30.0781C135.618 29.8651 136.156 29.5455 136.604 29.1193C137.051 28.6932 137.392 28.1712 137.627 27.5533L143.923 27.9688C143.603 29.4815 142.948 30.8026 141.957 31.9318C140.977 33.0504 139.709 33.924 138.154 34.5526C136.609 35.1705 134.825 35.4794 132.801 35.4794ZM168.932 17.4538L162.699 17.8374C162.593 17.3047 162.364 16.8253 162.012 16.3991C161.661 15.9624 161.197 15.6161 160.622 15.3604C160.057 15.0941 159.381 14.9609 158.593 14.9609C157.538 14.9609 156.648 15.1847 155.924 15.6321C155.199 16.0689 154.837 16.6548 154.837 17.3899C154.837 17.9759 155.072 18.4712 155.54 18.8761C156.009 19.2809 156.813 19.6058 157.953 19.8509L162.396 20.7457C164.782 21.2358 166.561 22.0241 167.733 23.1108C168.905 24.1974 169.491 25.625 169.491 27.3935C169.491 29.0021 169.017 30.4137 168.069 31.6282C167.131 32.8427 165.842 33.7908 164.202 34.4727C162.572 35.1438 160.691 35.4794 158.561 35.4794C155.311 35.4794 152.723 34.8029 150.794 33.4499C148.877 32.0863 147.753 30.2326 147.422 27.8888L154.118 27.5373C154.321 28.5281 154.811 29.2844 155.588 29.8065C156.366 30.3178 157.362 30.5735 158.577 30.5735C159.77 30.5735 160.729 30.3445 161.453 29.8864C162.188 29.4176 162.561 28.8157 162.572 28.0806C162.561 27.4627 162.3 26.9567 161.789 26.5625C161.277 26.1577 160.489 25.8487 159.424 25.6357L155.173 24.7887C152.776 24.3093 150.991 23.4783 149.819 22.2958C148.658 21.1133 148.078 19.6058 148.078 17.7734C148.078 16.1967 148.504 14.8384 149.356 13.6985C150.219 12.5586 151.428 11.6797 152.984 11.0618C154.55 10.4439 156.382 10.1349 158.481 10.1349C161.581 10.1349 164.02 10.7901 165.8 12.1005C167.589 13.4109 168.633 15.1953 168.932 17.4538ZM173.778 35V10.4545H180.585V35H173.778ZM177.197 7.29048C176.185 7.29048 175.317 6.9549 174.593 6.28373C173.879 5.60192 173.522 4.78693 173.522 3.83878C173.522 2.90128 173.879 2.09695 174.593 1.42578C175.317 0.743962 176.185 0.403052 177.197 0.403052C178.209 0.403052 179.072 0.743962 179.786 1.42578C180.511 2.09695 180.873 2.90128 180.873 3.83878C180.873 4.78693 180.511 5.60192 179.786 6.28373C179.072 6.9549 178.209 7.29048 177.197 7.29048ZM197.097 44.7159C194.891 44.7159 193 44.4123 191.424 43.805C189.858 43.2085 188.611 42.3935 187.684 41.3601C186.758 40.3267 186.156 39.1655 185.879 37.8764L192.175 37.0295C192.367 37.5195 192.67 37.9776 193.086 38.4038C193.501 38.8299 194.05 39.1708 194.732 39.4265C195.424 39.6928 196.266 39.826 197.256 39.826C198.737 39.826 199.957 39.4638 200.916 38.7393C201.885 38.0256 202.37 36.8271 202.37 35.1438V30.6534H202.082C201.784 31.3352 201.337 31.9798 200.74 32.587C200.144 33.1942 199.376 33.6896 198.439 34.0732C197.501 34.4567 196.383 34.6484 195.083 34.6484C193.24 34.6484 191.562 34.2223 190.049 33.37C188.547 32.5071 187.349 31.1914 186.454 29.4229C185.57 27.6438 185.128 25.396 185.128 22.6793C185.128 19.8988 185.58 17.5763 186.486 15.712C187.391 13.8477 188.595 12.4521 190.097 11.5252C191.61 10.5984 193.267 10.1349 195.067 10.1349C196.441 10.1349 197.592 10.3693 198.519 10.8381C199.446 11.2962 200.191 11.8714 200.756 12.5639C201.331 13.2457 201.773 13.9169 202.082 14.5774H202.338V10.4545H209.098V35.2397C209.098 37.3278 208.586 39.0749 207.564 40.4812C206.541 41.8874 205.124 42.9421 203.313 43.6452C201.512 44.359 199.44 44.7159 197.097 44.7159ZM197.24 29.5348C198.338 29.5348 199.265 29.2631 200.021 28.7198C200.788 28.1658 201.374 27.3775 201.779 26.3548C202.194 25.3214 202.402 24.0856 202.402 22.6474C202.402 21.2092 202.2 19.9627 201.795 18.908C201.39 17.8427 200.804 17.017 200.037 16.4311C199.27 15.8452 198.338 15.5522 197.24 15.5522C196.122 15.5522 195.179 15.8558 194.412 16.4631C193.645 17.0597 193.064 17.8906 192.67 18.956C192.276 20.0213 192.079 21.2518 192.079 22.6474C192.079 24.0643 192.276 25.2894 192.67 26.3228C193.075 27.3455 193.656 28.1392 194.412 28.7038C195.179 29.2578 196.122 29.5348 197.24 29.5348ZM221.322 20.8097V35H214.515V10.4545H221.003V14.7852H221.291C221.834 13.3576 222.745 12.2283 224.023 11.3974C225.302 10.5558 226.852 10.1349 228.673 10.1349C230.378 10.1349 231.864 10.5078 233.132 11.2536C234.4 11.9993 235.385 13.0646 236.088 14.4496C236.791 15.8239 237.143 17.4645 237.143 19.3714V35H230.335V20.5859C230.346 19.0838 229.962 17.9119 229.185 17.0703C228.407 16.218 227.336 15.7919 225.973 15.7919C225.057 15.7919 224.247 15.989 223.544 16.3832C222.851 16.7773 222.308 17.3526 221.914 18.109C221.53 18.8548 221.333 19.755 221.322 20.8097ZM273.346 17.4538L267.114 17.8374C267.007 17.3047 266.778 16.8253 266.426 16.3991C266.075 15.9624 265.611 15.6161 265.036 15.3604C264.471 15.0941 263.795 14.9609 263.007 14.9609C261.952 14.9609 261.062 15.1847 260.338 15.6321C259.614 16.0689 259.251 16.6548 259.251 17.3899C259.251 17.9759 259.486 18.4712 259.954 18.8761C260.423 19.2809 261.227 19.6058 262.367 19.8509L266.81 20.7457C269.196 21.2358 270.975 22.0241 272.147 23.1108C273.319 24.1974 273.905 25.625 273.905 27.3935C273.905 29.0021 273.431 30.4137 272.483 31.6282C271.545 32.8427 270.256 33.7908 268.616 34.4727C266.986 35.1438 265.105 35.4794 262.975 35.4794C259.725 35.4794 257.137 34.8029 255.208 33.4499C253.291 32.0863 252.167 30.2326 251.837 27.8888L258.532 27.5373C258.735 28.5281 259.225 29.2844 260.002 29.8065C260.78 30.3178 261.776 30.5735 262.991 30.5735C264.184 30.5735 265.143 30.3445 265.867 29.8864C266.602 29.4176 266.975 28.8157 266.986 28.0806C266.975 27.4627 266.714 26.9567 266.203 26.5625C265.691 26.1577 264.903 25.8487 263.838 25.6357L259.587 24.7887C257.19 24.3093 255.405 23.4783 254.234 22.2958C253.072 21.1133 252.492 19.6058 252.492 17.7734C252.492 16.1967 252.918 14.8384 253.77 13.6985C254.633 12.5586 255.842 11.6797 257.398 11.0618C258.964 10.4439 260.796 10.1349 262.895 10.1349C265.995 10.1349 268.435 10.7901 270.214 12.1005C272.003 13.4109 273.047 15.1953 273.346 17.4538ZM289.378 35.4794C286.853 35.4794 284.68 34.968 282.858 33.9453C281.047 32.9119 279.651 31.4524 278.671 29.5668C277.691 27.6705 277.201 25.4279 277.201 22.8391C277.201 20.3143 277.691 18.0984 278.671 16.1914C279.651 14.2844 281.031 12.7983 282.81 11.733C284.6 10.6676 286.698 10.1349 289.106 10.1349C290.725 10.1349 292.233 10.396 293.629 10.918C295.035 11.4293 296.26 12.2017 297.304 13.2351C298.359 14.2685 299.179 15.5682 299.765 17.1342C300.351 18.6896 300.644 20.5114 300.644 22.5994V24.4691H279.918V20.2504H294.236C294.236 19.2702 294.023 18.402 293.597 17.6456C293.17 16.8892 292.579 16.2979 291.823 15.8718C291.077 15.435 290.209 15.2166 289.218 15.2166C288.185 15.2166 287.268 15.4563 286.469 15.9357C285.681 16.4045 285.063 17.0384 284.616 17.8374C284.168 18.6257 283.939 19.5046 283.929 20.4741V24.4851C283.929 25.6996 284.152 26.7489 284.6 27.6332C285.058 28.5174 285.702 29.1992 286.533 29.6786C287.364 30.158 288.35 30.3977 289.49 30.3977C290.246 30.3977 290.939 30.2912 291.567 30.0781C292.196 29.8651 292.734 29.5455 293.181 29.1193C293.629 28.6932 293.969 28.1712 294.204 27.5533L300.5 27.9688C300.18 29.4815 299.525 30.8026 298.534 31.9318C297.554 33.0504 296.287 33.924 294.731 34.5526C293.186 35.1705 291.402 35.4794 289.378 35.4794ZM305.086 35V10.4545H311.686V14.7372H311.942C312.389 13.2138 313.14 12.0632 314.195 11.2855C315.25 10.4972 316.464 10.103 317.838 10.103C318.179 10.103 318.547 10.1243 318.941 10.1669C319.335 10.2095 319.681 10.2681 319.98 10.3427V16.3832C319.66 16.2873 319.218 16.2021 318.653 16.1275C318.089 16.0529 317.572 16.0156 317.103 16.0156C316.102 16.0156 315.207 16.234 314.419 16.6708C313.641 17.0969 313.023 17.6935 312.565 18.4606C312.117 19.2276 311.894 20.1119 311.894 21.1133V35H305.086ZM347.13 10.4545L338.549 35H330.878L322.297 10.4545H329.488L334.586 28.0167H334.841L339.923 10.4545H347.13ZM350.614 35V10.4545H357.421V35H350.614ZM354.033 7.29048C353.021 7.29048 352.153 6.9549 351.429 6.28373C350.715 5.60192 350.358 4.78693 350.358 3.83878C350.358 2.90128 350.715 2.09695 351.429 1.42578C352.153 0.743962 353.021 0.403052 354.033 0.403052C355.045 0.403052 355.908 0.743962 356.622 1.42578C357.347 2.09695 357.709 2.90128 357.709 3.83878C357.709 4.78693 357.347 5.60192 356.622 6.28373C355.908 6.9549 355.045 7.29048 354.033 7.29048ZM373.965 35.4794C371.45 35.4794 369.288 34.9467 367.477 33.8814C365.676 32.8054 364.291 31.3139 363.322 29.407C362.363 27.5 361.884 25.3054 361.884 22.8232C361.884 20.3089 362.368 18.1037 363.338 16.2074C364.318 14.3004 365.708 12.8143 367.509 11.7489C369.309 10.6729 371.45 10.1349 373.933 10.1349C376.074 10.1349 377.949 10.5238 379.558 11.3015C381.166 12.0792 382.439 13.1712 383.377 14.5774C384.314 15.9837 384.831 17.6349 384.927 19.5312H378.503C378.322 18.3061 377.842 17.3207 377.065 16.5749C376.298 15.8185 375.291 15.4403 374.044 15.4403C372.99 15.4403 372.068 15.728 371.28 16.3033C370.502 16.8679 369.895 17.6935 369.458 18.7802C369.021 19.8668 368.803 21.1825 368.803 22.7273C368.803 24.2933 369.016 25.625 369.442 26.7223C369.879 27.8196 370.492 28.6559 371.28 29.2312C372.068 29.8065 372.99 30.0941 374.044 30.0941C374.822 30.0941 375.52 29.9343 376.138 29.6147C376.766 29.2951 377.283 28.8317 377.688 28.2244C378.103 27.6065 378.375 26.8661 378.503 26.0032H384.927C384.82 27.8782 384.309 29.5295 383.393 30.957C382.487 32.3739 381.235 33.4819 379.637 34.2809C378.039 35.0799 376.148 35.4794 373.965 35.4794ZM400.472 35.4794C397.947 35.4794 395.773 34.968 393.952 33.9453C392.141 32.9119 390.745 31.4524 389.765 29.5668C388.785 27.6705 388.295 25.4279 388.295 22.8391C388.295 20.3143 388.785 18.0984 389.765 16.1914C390.745 14.2844 392.125 12.7983 393.904 11.733C395.693 10.6676 397.792 10.1349 400.2 10.1349C401.819 10.1349 403.327 10.396 404.722 10.918C406.129 11.4293 407.354 12.2017 408.398 13.2351C409.452 14.2685 410.273 15.5682 410.859 17.1342C411.445 18.6896 411.738 20.5114 411.738 22.5994V24.4691H391.011V20.2504H405.33C405.33 19.2702 405.116 18.402 404.69 17.6456C404.264 16.8892 403.673 16.2979 402.917 15.8718C402.171 15.435 401.303 15.2166 400.312 15.2166C399.278 15.2166 398.362 15.4563 397.563 15.9357C396.775 16.4045 396.157 17.0384 395.709 17.8374C395.262 18.6257 395.033 19.5046 395.022 20.4741V24.4851C395.022 25.6996 395.246 26.7489 395.693 27.6332C396.152 28.5174 396.796 29.1992 397.627 29.6786C398.458 30.158 399.443 30.3977 400.583 30.3977C401.34 30.3977 402.032 30.2912 402.661 30.0781C403.289 29.8651 403.827 29.5455 404.275 29.1193C404.722 28.6932 405.063 28.1712 405.298 27.5533L411.594 27.9688C411.274 29.4815 410.619 30.8026 409.628 31.9318C408.648 33.0504 407.38 33.924 405.825 34.5526C404.28 35.1705 402.496 35.4794 400.472 35.4794ZM436.603 17.4538L430.37 17.8374C430.264 17.3047 430.035 16.8253 429.683 16.3991C429.332 15.9624 428.868 15.6161 428.293 15.3604C427.728 15.0941 427.052 14.9609 426.263 14.9609C425.209 14.9609 424.319 15.1847 423.595 15.6321C422.87 16.0689 422.508 16.6548 422.508 17.3899C422.508 17.9759 422.742 18.4712 423.211 18.8761C423.68 19.2809 424.484 19.6058 425.624 19.8509L430.067 20.7457C432.453 21.2358 434.232 22.0241 435.404 23.1108C436.576 24.1974 437.162 25.625 437.162 27.3935C437.162 29.0021 436.688 30.4137 435.74 31.6282C434.802 32.8427 433.513 33.7908 431.872 34.4727C430.242 35.1438 428.362 35.4794 426.231 35.4794C422.982 35.4794 420.393 34.8029 418.465 33.4499C416.548 32.0863 415.424 30.2326 415.093 27.8888L421.789 27.5373C421.991 28.5281 422.481 29.2844 423.259 29.8065C424.037 30.3178 425.033 30.5735 426.247 30.5735C427.441 30.5735 428.399 30.3445 429.124 29.8864C429.859 29.4176 430.232 28.8157 430.242 28.0806C430.232 27.4627 429.971 26.9567 429.459 26.5625C428.948 26.1577 428.16 25.8487 427.094 25.6357L422.844 24.7887C420.447 24.3093 418.662 23.4783 417.49 22.2958C416.329 21.1133 415.749 19.6058 415.749 17.7734C415.749 16.1967 416.175 14.8384 417.027 13.6985C417.89 12.5586 419.099 11.6797 420.654 11.0618C422.22 10.4439 424.053 10.1349 426.152 10.1349C429.252 10.1349 431.691 10.7901 433.47 12.1005C435.26 13.4109 436.304 15.1953 436.603 17.4538Z" fill="#300391"/>
</svg>
